<svg width="102" height="20" viewBox="0 0 102 20" fill="none" xmlns="http://www.w3.org/2000/svg">
<path d="M3.35 19V15.55H7.725C8.79167 15.55 9.725 15.3417 10.525 14.925C11.325 14.4917 11.9417 13.8667 12.375 13.05C12.8083 12.2333 13.025 11.2667 13.025 10.15C13.025 9.03333 12.8 8.075 12.35 7.275C11.9167 6.475 11.3 5.85833 10.5 5.425C9.71667 4.99167 8.79167 4.775 7.725 4.775H3.225V1.35H7.775C9.10833 1.35 10.3333 1.56667 11.45 2C12.5833 2.41667 13.5667 3.025 14.4 3.825C15.25 4.60833 15.9 5.54167 16.35 6.625C16.8167 7.69167 17.05 8.875 17.05 10.175C17.05 11.4583 16.8167 12.6417 16.35 13.725C15.9 14.8083 15.2583 15.7417 14.425 16.525C13.5917 17.3083 12.6083 17.9167 11.475 18.35C10.3583 18.7833 9.14167 19 7.825 19H3.35ZM0.7 19V1.35H4.625V19H0.7ZM25.1977 19.275C23.881 19.275 22.706 19.0083 21.6727 18.475C20.656 17.925 19.856 17.1667 19.2727 16.2C18.6893 15.2333 18.3977 14.1417 18.3977 12.925C18.3977 11.7083 18.681 10.625 19.2477 9.675C19.831 8.70833 20.6143 7.95 21.5977 7.4C22.581 6.85 23.6893 6.575 24.9227 6.575C26.1227 6.575 27.181 6.83333 28.0977 7.35C29.0143 7.86667 29.731 8.58333 30.2477 9.5C30.781 10.4167 31.0477 11.4667 31.0477 12.65C31.0477 12.8667 31.031 13.1 30.9977 13.35C30.981 13.5833 30.9393 13.8583 30.8727 14.175L20.3977 14.2V11.575L29.2477 11.55L27.5977 12.65C27.581 11.95 27.4727 11.375 27.2727 10.925C27.0727 10.4583 26.7727 10.1083 26.3727 9.875C25.9893 9.625 25.5143 9.5 24.9477 9.5C24.3477 9.5 23.8227 9.64167 23.3727 9.925C22.9393 10.1917 22.5977 10.575 22.3477 11.075C22.1143 11.575 21.9977 12.1833 21.9977 12.9C21.9977 13.6167 22.1227 14.2333 22.3727 14.75C22.6393 15.25 23.006 15.6417 23.4727 15.925C23.956 16.1917 24.5227 16.325 25.1727 16.325C25.7727 16.325 26.3143 16.225 26.7977 16.025C27.281 15.8083 27.706 15.4917 28.0727 15.075L30.1727 17.175C29.5727 17.875 28.8477 18.4 27.9977 18.75C27.1477 19.1 26.2143 19.275 25.1977 19.275ZM38.7689 19.275C37.5189 19.275 36.3856 19 35.3689 18.45C34.3523 17.9 33.5523 17.1417 32.9689 16.175C32.3856 15.2083 32.0939 14.125 32.0939 12.925C32.0939 11.7083 32.3856 10.625 32.9689 9.675C33.5689 8.70833 34.3773 7.95 35.3939 7.4C36.4106 6.85 37.5523 6.575 38.8189 6.575C39.7689 6.575 40.6356 6.74167 41.4189 7.075C42.2189 7.39167 42.9273 7.875 43.5439 8.525L41.0939 10.975C40.8106 10.6583 40.4773 10.425 40.0939 10.275C39.7273 10.125 39.3023 10.05 38.8189 10.05C38.2689 10.05 37.7773 10.175 37.3439 10.425C36.9273 10.6583 36.5939 10.9917 36.3439 11.425C36.1106 11.8417 35.9939 12.3333 35.9939 12.9C35.9939 13.4667 36.1106 13.9667 36.3439 14.4C36.5939 14.8333 36.9356 15.175 37.3689 15.425C37.8023 15.675 38.2856 15.8 38.8189 15.8C39.3189 15.8 39.7606 15.7167 40.1439 15.55C40.5439 15.3667 40.8856 15.1167 41.1689 14.8L43.5939 17.25C42.9606 17.9167 42.2439 18.425 41.4439 18.775C40.6439 19.1083 39.7523 19.275 38.7689 19.275ZM51.0033 19.275C49.6867 19.275 48.5117 19.0083 47.4783 18.475C46.4617 17.925 45.6617 17.1667 45.0783 16.2C44.495 15.2333 44.2033 14.1417 44.2033 12.925C44.2033 11.7083 44.4867 10.625 45.0533 9.675C45.6367 8.70833 46.42 7.95 47.4033 7.4C48.3867 6.85 49.495 6.575 50.7283 6.575C51.9283 6.575 52.9867 6.83333 53.9033 7.35C54.82 7.86667 55.5367 8.58333 56.0533 9.5C56.5867 10.4167 56.8533 11.4667 56.8533 12.65C56.8533 12.8667 56.8367 13.1 56.8033 13.35C56.7867 13.5833 56.745 13.8583 56.6783 14.175L46.2033 14.2V11.575L55.0533 11.55L53.4033 12.65C53.3867 11.95 53.2783 11.375 53.0783 10.925C52.8783 10.4583 52.5783 10.1083 52.1783 9.875C51.795 9.625 51.32 9.5 50.7533 9.5C50.1533 9.5 49.6283 9.64167 49.1783 9.925C48.745 10.1917 48.4033 10.575 48.1533 11.075C47.92 11.575 47.8033 12.1833 47.8033 12.9C47.8033 13.6167 47.9283 14.2333 48.1783 14.75C48.445 15.25 48.8117 15.6417 49.2783 15.925C49.7617 16.1917 50.3283 16.325 50.9783 16.325C51.5783 16.325 52.12 16.225 52.6033 16.025C53.0867 15.8083 53.5117 15.4917 53.8783 15.075L55.9783 17.175C55.3783 17.875 54.6533 18.4 53.8033 18.75C52.9533 19.1 52.02 19.275 51.0033 19.275ZM66.7246 19V12.075C66.7246 11.4417 66.5246 10.9333 66.1246 10.55C65.7413 10.15 65.2496 9.95 64.6496 9.95C64.2329 9.95 63.8663 10.0417 63.5496 10.225C63.2329 10.3917 62.9829 10.6417 62.7996 10.975C62.6163 11.2917 62.5246 11.6583 62.5246 12.075L61.0496 11.35C61.0496 10.4 61.2579 9.56667 61.6746 8.85C62.0913 8.13333 62.6663 7.58333 63.3996 7.2C64.1496 6.8 64.9913 6.6 65.9246 6.6C66.8246 6.6 67.6163 6.81667 68.2996 7.25C68.9996 7.66667 69.5496 8.225 69.9496 8.925C70.3496 9.625 70.5496 10.3917 70.5496 11.225V19H66.7246ZM58.6996 19V6.85H62.5246V19H58.6996ZM74.5848 19V1.825H78.4098V19H74.5848ZM71.8348 10.1V6.85H81.1598V10.1H71.8348ZM87.676 19.25C86.5593 19.25 85.5593 18.975 84.676 18.425C83.8093 17.875 83.1176 17.125 82.601 16.175C82.101 15.225 81.851 14.1417 81.851 12.925C81.851 11.7083 82.101 10.625 82.601 9.675C83.1176 8.725 83.8093 7.975 84.676 7.425C85.5593 6.875 86.5593 6.6 87.676 6.6C88.4926 6.6 89.226 6.75833 89.876 7.075C90.5426 7.39167 91.0843 7.83333 91.501 8.4C91.9176 8.95 92.151 9.58333 92.201 10.3V15.55C92.151 16.2667 91.9176 16.9083 91.501 17.475C91.101 18.025 90.5676 18.4583 89.901 18.775C89.2343 19.0917 88.4926 19.25 87.676 19.25ZM88.451 15.8C89.2676 15.8 89.926 15.5333 90.426 15C90.926 14.45 91.176 13.7583 91.176 12.925C91.176 12.3583 91.0593 11.8583 90.826 11.425C90.6093 10.9917 90.2926 10.6583 89.876 10.425C89.476 10.175 89.0093 10.05 88.476 10.05C87.9426 10.05 87.4676 10.175 87.051 10.425C86.651 10.6583 86.326 10.9917 86.076 11.425C85.8426 11.8583 85.726 12.3583 85.726 12.925C85.726 13.475 85.8426 13.9667 86.076 14.4C86.3093 14.8333 86.6343 15.175 87.051 15.425C87.4676 15.675 87.9343 15.8 88.451 15.8ZM91.026 19V15.725L91.601 12.775L91.026 9.825V6.85H94.776V19H91.026ZM97.4691 19V0.85H101.294V19H97.4691Z" fill="#263238"/>
</svg>
